# xmcd
#
# Track frame offsets: 
#        150
#        15963
#        38200
#        50414
#        70298
#        94943
#        109831
#        124984
#        152793
#        167746
#        188263
#
# Disc length: 2704 seconds
#
# Revision: 0
# Processed by: cddbd v1.5.2PL0 Copyright (c) Steve Scherf et al.
# Submitted via: ExactAudioCopy v1.2
#
DISCID=880a8e0b
DTITLE=Melody Gardot - My One and Only Thrill
DYEAR=2008
DGENRE=Blues
TTITLE0="Baby I'm a Fool" 
TTITLE1="If the Stars Were Mine" 
TTITLE2="Who Will Comfort Me"
TTITLE3="Your Heart Is As Black As Night"
TTITLE4="Lover Undercover"
TTITLE5="Our Love Is Easy"
TTITLE6="Les Etoiles" 
TTITLE7="The Rain"
TTITLE8="My One and Only Thrill"
TTITLE9="Deep Within the Corners of My Mind" 
TTITLE10="Over the Rainbow" 
EXTD=
EXTT0=
EXTT1=
EXTT2=
EXTT3=
EXTT4=
EXTT5=
EXTT6=
EXTT7=
EXTT8=
EXTT9=
EXTT10=
PLAYORDER=
